<svg width="28" height="28" viewBox="0 0 28 28" fill="none" xmlns="http://www.w3.org/2000/svg">
<g filter="url(#filter0_dd_2_177)">
<g clip-path="url(#clip0_2_177)">
<rect x="5" y="1" width="18" height="18" rx="9" fill="#FFC700"/>
<path d="M12.5312 12.6832L14.5 11.4297L16.4688 12.6997L15.9531 10.3247L17.6875 8.74132L15.4062 8.52691L14.5 6.28385L13.5938 8.51042L11.3125 8.72483L13.0469 10.3247L12.5312 12.6832ZM10.6406 15.4375L11.6562 10.803L8.25 7.68576L12.75 7.27344L14.5 2.90278L16.25 7.27344L20.75 7.68576L17.3438 10.803L18.3594 15.4375L14.5 12.98L10.6406 15.4375Z" fill="white"/>
</g>
</g>
<defs>
<filter id="filter0_dd_2_177" x="0" y="0" width="28" height="28" filterUnits="userSpaceOnUse" color-interpolation-filters="sRGB">
<feFlood flood-opacity="0" result="BackgroundImageFix"/>
<feColorMatrix in="SourceAlpha" type="matrix" values="0 0 0 0 0 0 0 0 0 0 0 0 0 0 0 0 0 0 127 0" result="hardAlpha"/>
<feMorphology radius="2" operator="erode" in="SourceAlpha" result="effect1_dropShadow_2_177"/>
<feOffset dy="2"/>
<feGaussianBlur stdDeviation="2"/>
<feComposite in2="hardAlpha" operator="out"/>
<feColorMatrix type="matrix" values="0 0 0 0 0 0 0 0 0 0 0 0 0 0 0 0 0 0 0.1 0"/>
<feBlend mode="normal" in2="BackgroundImageFix" result="effect1_dropShadow_2_177"/>
<feColorMatrix in="SourceAlpha" type="matrix" values="0 0 0 0 0 0 0 0 0 0 0 0 0 0 0 0 0 0 127 0" result="hardAlpha"/>
<feMorphology radius="1" operator="erode" in="SourceAlpha" result="effect2_dropShadow_2_177"/>
<feOffset dy="4"/>
<feGaussianBlur stdDeviation="3"/>
<feComposite in2="hardAlpha" operator="out"/>
<feColorMatrix type="matrix" values="0 0 0 0 0 0 0 0 0 0 0 0 0 0 0 0 0 0 0.1 0"/>
<feBlend mode="normal" in2="effect1_dropShadow_2_177" result="effect2_dropShadow_2_177"/>
<feBlend mode="normal" in="SourceGraphic" in2="effect2_dropShadow_2_177" result="shape"/>
</filter>
<clipPath id="clip0_2_177">
<rect x="5" y="1" width="18" height="18" rx="9" fill="white"/>
</clipPath>
</defs>
</svg>
