<svg width="48" height="58" viewBox="0 0 48 58" fill="none" xmlns="http://www.w3.org/2000/svg">
<path d="M21 39C22.4 39 23.5833 38.5167 24.55 37.55C25.5167 36.5833 26 35.4 26 34V23H32V19H24V30C23.5667 29.7 23.1 29.4583 22.6 29.275C22.1 29.0917 21.5667 29 21 29C19.6 29 18.4167 29.4833 17.45 30.45C16.4833 31.4167 16 32.6 16 34C16 35.4 16.4833 36.5833 17.45 37.55C18.4167 38.5167 19.6 39 21 39ZM8 45C6.9 45 5.95833 44.6083 5.175 43.825C4.39167 43.0417 4 42.1 4 41V17C4 15.9 4.39167 14.9583 5.175 14.175C5.95833 13.3917 6.9 13 8 13H40C41.1 13 42.0417 13.3917 42.825 14.175C43.6083 14.9583 44 15.9 44 17V41C44 42.1 43.6083 43.0417 42.825 43.825C42.0417 44.6083 41.1 45 40 45H8ZM8 41H40V17H8V41Z" fill="#64748B"/>
</svg>
