<svg width="24" height="32" viewBox="0 0 24 32" fill="none" xmlns="http://www.w3.org/2000/svg">
<path d="M3 31.5C2.175 31.5 1.46875 31.2063 0.88125 30.6187C0.29375 30.0312 0 29.325 0 28.5V13.5C0 12.675 0.29375 11.9688 0.88125 11.3812C1.46875 10.7937 2.175 10.5 3 10.5H4.5V7.5C4.5 5.425 5.23125 3.65625 6.69375 2.19375C8.15625 0.731249 9.925 -1.90735e-06 12 -1.90735e-06C14.075 -1.90735e-06 15.8438 0.731249 17.3063 2.19375C18.7688 3.65625 19.5 5.425 19.5 7.5V10.5H21C21.825 10.5 22.5312 10.7937 23.1188 11.3812C23.7063 11.9688 24 12.675 24 13.5V28.5C24 29.325 23.7063 30.0312 23.1188 30.6187C22.5312 31.2063 21.825 31.5 21 31.5H3ZM3 28.5H21V13.5H3V28.5ZM12 24C12.825 24 13.5313 23.7062 14.1188 23.1187C14.7063 22.5312 15 21.825 15 21C15 20.175 14.7063 19.4688 14.1188 18.8812C13.5313 18.2937 12.825 18 12 18C11.175 18 10.4688 18.2937 9.88125 18.8812C9.29375 19.4688 9 20.175 9 21C9 21.825 9.29375 22.5312 9.88125 23.1187C10.4688 23.7062 11.175 24 12 24ZM7.5 10.5H16.5V7.5C16.5 6.25 16.0625 5.1875 15.1875 4.3125C14.3125 3.4375 13.25 3 12 3C10.75 3 9.6875 3.4375 8.8125 4.3125C7.9375 5.1875 7.5 6.25 7.5 7.5V10.5Z" fill="white" fill-opacity="0.8"/>
</svg>
