<svg width="48" height="58" viewBox="0 0 48 58" fill="none" xmlns="http://www.w3.org/2000/svg">
<path d="M18 11V7H30V11H18ZM22 33H26V21H22V33ZM24 49C21.5333 49 19.2083 48.525 17.025 47.575C14.8417 46.625 12.9333 45.3333 11.3 43.7C9.66667 42.0667 8.375 40.1583 7.425 37.975C6.475 35.7917 6 33.4667 6 31C6 28.5333 6.475 26.2083 7.425 24.025C8.375 21.8417 9.66667 19.9333 11.3 18.3C12.9333 16.6667 14.8417 15.375 17.025 14.425C19.2083 13.475 21.5333 13 24 13C26.0667 13 28.05 13.3333 29.95 14C31.85 14.6667 33.6333 15.6333 35.3 16.9L38.1 14.1L40.9 16.9L38.1 19.7C39.3667 21.3667 40.3333 23.15 41 25.05C41.6667 26.95 42 28.9333 42 31C42 33.4667 41.525 35.7917 40.575 37.975C39.625 40.1583 38.3333 42.0667 36.7 43.7C35.0667 45.3333 33.1583 46.625 30.975 47.575C28.7917 48.525 26.4667 49 24 49ZM24 45C27.8667 45 31.1667 43.6333 33.9 40.9C36.6333 38.1667 38 34.8667 38 31C38 27.1333 36.6333 23.8333 33.9 21.1C31.1667 18.3667 27.8667 17 24 17C20.1333 17 16.8333 18.3667 14.1 21.1C11.3667 23.8333 10 27.1333 10 31C10 34.8667 11.3667 38.1667 14.1 40.9C16.8333 43.6333 20.1333 45 24 45Z" fill="white"/>
</svg>
