<svg width="20" height="20" viewBox="0 0 20 20" fill="none" xmlns="http://www.w3.org/2000/svg">
<path d="M8.35763 14.1886L15.2089 7.33727L13.8484 5.97673L8.35763 11.4675L5.58795 8.69782L4.22741 10.0584L8.35763 14.1886ZM9.71817 19.4364C8.37383 19.4364 7.11047 19.1813 5.92809 18.6711C4.74571 18.1609 3.7172 17.4685 2.84257 16.5938C1.96793 15.7192 1.27551 14.6907 0.765306 13.5083C0.255102 12.3259 0 11.0626 0 9.71823C0 8.37388 0.255102 7.11052 0.765306 5.92814C1.27551 4.74576 1.96793 3.71725 2.84257 2.84262C3.7172 1.96798 4.74571 1.27556 5.92809 0.765358C7.11047 0.255154 8.37383 5.14984e-05 9.71817 5.14984e-05C11.0625 5.14984e-05 12.3259 0.255154 13.5083 0.765358C14.6906 1.27556 15.7191 1.96798 16.5938 2.84262C17.4684 3.71725 18.1608 4.74576 18.671 5.92814C19.1812 7.11052 19.4363 8.37388 19.4363 9.71823C19.4363 11.0626 19.1812 12.3259 18.671 13.5083C18.1608 14.6907 17.4684 15.7192 16.5938 16.5938C15.7191 17.4685 14.6906 18.1609 13.5083 18.6711C12.3259 19.1813 11.0625 19.4364 9.71817 19.4364ZM9.71817 17.4928C11.8886 17.4928 13.7269 16.7396 15.2332 15.2333C16.7396 13.727 17.4927 11.8886 17.4927 9.71823C17.4927 7.54783 16.7396 5.70948 15.2332 4.20316C13.7269 2.69684 11.8886 1.94369 9.71817 1.94369C7.54778 1.94369 5.70943 2.69684 4.20311 4.20316C2.69679 5.70948 1.94363 7.54783 1.94363 9.71823C1.94363 11.8886 2.69679 13.727 4.20311 15.2333C5.70943 16.7396 7.54778 17.4928 9.71817 17.4928Z" fill="white"/>
</svg>
