<svg width="48" height="48" viewBox="0 0 48 48" fill="none" xmlns="http://www.w3.org/2000/svg">
<rect width="48" height="48" rx="24" fill="white"/>
<path d="M21.3165 33.7222L20.9276 30.6111C20.7169 30.5301 20.5184 30.4329 20.3321 30.3194C20.1457 30.206 19.9635 30.0845 19.7852 29.9549L16.8928 31.1701L14.2192 26.5521L16.7227 24.6562C16.7065 24.5428 16.6984 24.4334 16.6984 24.3281C16.6984 24.2228 16.6984 24.1134 16.6984 24C16.6984 23.8866 16.6984 23.7772 16.6984 23.6719C16.6984 23.5666 16.7065 23.4572 16.7227 23.3437L14.2192 21.4479L16.8928 16.8299L19.7852 18.0451C19.9635 17.9155 20.1498 17.794 20.3442 17.6806C20.5387 17.5671 20.7331 17.4699 20.9276 17.3889L21.3165 14.2778H26.6637L27.0526 17.3889C27.2632 17.4699 27.4617 17.5671 27.6481 17.6806C27.8344 17.794 28.0167 17.9155 28.1949 18.0451L31.0873 16.8299L33.7609 21.4479L31.2574 23.3437C31.2736 23.4572 31.2817 23.5666 31.2817 23.6719C31.2817 23.7772 31.2817 23.8866 31.2817 24C31.2817 24.1134 31.2817 24.2228 31.2817 24.3281C31.2817 24.4334 31.2655 24.5428 31.2331 24.6562L33.7366 26.5521L31.063 31.1701L28.1949 29.9549C28.0167 30.0845 27.8304 30.206 27.6359 30.3194C27.4415 30.4329 27.247 30.5301 27.0526 30.6111L26.6637 33.7222H21.3165ZM23.0178 31.7778H24.938L25.2783 29.2014C25.7806 29.0718 26.2464 28.8814 26.6758 28.6302C27.1052 28.379 27.4982 28.0752 27.8547 27.7187L30.2609 28.7153L31.2088 27.0625L29.1185 25.4826C29.1996 25.2558 29.2563 25.0168 29.2887 24.7656C29.3211 24.5145 29.3373 24.2593 29.3373 24C29.3373 23.7407 29.3211 23.4855 29.2887 23.2344C29.2563 22.9832 29.1996 22.7442 29.1185 22.5174L31.2088 20.9375L30.2609 19.2847L27.8547 20.3056C27.4982 19.9329 27.1052 19.6209 26.6758 19.3698C26.2464 19.1186 25.7806 18.9282 25.2783 18.7986L24.9623 16.2222H23.0422L22.7019 18.7986C22.1996 18.9282 21.7337 19.1186 21.3043 19.3698C20.8749 19.6209 20.482 19.9248 20.1255 20.2812L17.7192 19.2847L16.7713 20.9375L18.8616 22.4931C18.7806 22.7361 18.7239 22.9792 18.6915 23.2222C18.6591 23.4653 18.6428 23.7245 18.6428 24C18.6428 24.2593 18.6591 24.5104 18.6915 24.7535C18.7239 24.9965 18.7806 25.2396 18.8616 25.4826L16.7713 27.0625L17.7192 28.7153L20.1255 27.6944C20.482 28.0671 20.8749 28.379 21.3043 28.6302C21.7337 28.8814 22.1996 29.0718 22.7019 29.2014L23.0178 31.7778ZM24.0387 27.4028C24.9785 27.4028 25.7806 27.0706 26.4449 26.4062C27.1093 25.7419 27.4415 24.9398 27.4415 24C27.4415 23.0602 27.1093 22.2581 26.4449 21.5937C25.7806 20.9294 24.9785 20.5972 24.0387 20.5972C23.0827 20.5972 22.2765 20.9294 21.6203 21.5937C20.964 22.2581 20.6359 23.0602 20.6359 24C20.6359 24.9398 20.964 25.7419 21.6203 26.4062C22.2765 27.0706 23.0827 27.4028 24.0387 27.4028Z" fill="#333333"/>
</svg>
