<svg width="48" height="58" viewBox="0 0 48 58" fill="none" xmlns="http://www.w3.org/2000/svg">
<path d="M10 47C8.9 47 7.95833 46.6083 7.175 45.825C6.39167 45.0417 6 44.1 6 43V15C6 13.9 6.39167 12.9583 7.175 12.175C7.95833 11.3917 8.9 11 10 11H38C39.1 11 40.0417 11.3917 40.825 12.175C41.6083 12.9583 42 13.9 42 15V43C42 44.1 41.6083 45.0417 40.825 45.825C40.0417 46.6083 39.1 47 38 47H10ZM10 43H16.5V34H16C15.4333 34 14.9583 33.8083 14.575 33.425C14.1917 33.0417 14 32.5667 14 32V15H10V43ZM31.5 43H38V15H34V32C34 32.5667 33.8083 33.0417 33.425 33.425C33.0417 33.8083 32.5667 34 32 34H31.5V43ZM19.5 43H28.5V34H28C27.4333 34 26.9583 33.8083 26.575 33.425C26.1917 33.0417 26 32.5667 26 32V15H22V32C22 32.5667 21.8083 33.0417 21.425 33.425C21.0417 33.8083 20.5667 34 20 34H19.5V43Z" fill="white"/>
</svg>
