<svg width="35" height="48" viewBox="0 0 35 48" fill="none" xmlns="http://www.w3.org/2000/svg">
<path d="M17.5 30C15.4167 30 13.6458 29.2708 12.1875 27.8125C10.7292 26.3542 10 24.5833 10 22.5V7.5C10 5.41667 10.7292 3.64583 12.1875 2.1875C13.6458 0.729168 15.4167 0 17.5 0C19.5833 0 21.3542 0.729168 22.8125 2.1875C24.2708 3.64583 25 5.41667 25 7.5V22.5C25 24.5833 24.2708 26.3542 22.8125 27.8125C21.3542 29.2708 19.5833 30 17.5 30ZM15 47.5V39.8125C10.6667 39.2292 7.08333 37.2917 4.25 34C1.41667 30.7083 0 26.875 0 22.5H5C5 25.9583 6.21875 28.9062 8.65625 31.3438C11.0938 33.7812 14.0417 35 17.5 35C20.9583 35 23.9062 33.7812 26.3438 31.3438C28.7812 28.9062 30 25.9583 30 22.5H35C35 26.875 33.5833 30.7083 30.75 34C27.9167 37.2917 24.3333 39.2292 20 39.8125V47.5H15ZM17.5 25C18.2083 25 18.8021 24.7604 19.2812 24.2812C19.7604 23.8021 20 23.2083 20 22.5V7.5C20 6.79167 19.7604 6.19792 19.2812 5.71875C18.8021 5.23958 18.2083 5 17.5 5C16.7917 5 16.1979 5.23958 15.7188 5.71875C15.2396 6.19792 15 6.79167 15 7.5V22.5C15 23.2083 15.2396 23.8021 15.7188 24.2812C16.1979 24.7604 16.7917 25 17.5 25Z" fill="white"/>
</svg>
