<svg width="15" height="21" viewBox="0 0 15 21" fill="none" xmlns="http://www.w3.org/2000/svg">
<path d="M1.85159 20.4167C1.3424 20.4167 0.906509 20.2263 0.543905 19.8455C0.181302 19.4647 0 19.007 0 18.4722V8.75002C0 8.2153 0.181302 7.75754 0.543905 7.37675C0.906509 6.99597 1.3424 6.80557 1.85159 6.80557H2.77739V4.86113C2.77739 3.51622 3.22871 2.36981 4.13136 1.42189C5.03402 0.473976 6.12568 1.90735e-05 7.40637 1.90735e-05C8.68705 1.90735e-05 9.77872 0.473976 10.6814 1.42189C11.584 2.36981 12.0353 3.51622 12.0353 4.86113V6.80557H12.9611C13.4703 6.80557 13.9062 6.99597 14.2688 7.37675C14.6314 7.75754 14.8127 8.2153 14.8127 8.75002V18.4722C14.8127 19.007 14.6314 19.4647 14.2688 19.8455C13.9062 20.2263 13.4703 20.4167 12.9611 20.4167H1.85159ZM1.85159 18.4722H12.9611V8.75002H1.85159V18.4722ZM7.40637 15.5556C7.91556 15.5556 8.35145 15.3652 8.71405 14.9844C9.07666 14.6036 9.25796 14.1459 9.25796 13.6111C9.25796 13.0764 9.07666 12.6187 8.71405 12.2379C8.35145 11.8571 7.91556 11.6667 7.40637 11.6667C6.89718 11.6667 6.46128 11.8571 6.09868 12.2379C5.73608 12.6187 5.55478 13.0764 5.55478 13.6111C5.55478 14.1459 5.73608 14.6036 6.09868 14.9844C6.46128 15.3652 6.89718 15.5556 7.40637 15.5556ZM4.62898 6.80557H10.1838V4.86113C10.1838 4.05095 9.91373 3.36229 9.37368 2.79516C8.83364 2.22803 8.17786 1.94446 7.40637 1.94446C6.63487 1.94446 5.9791 2.22803 5.43905 2.79516C4.899 3.36229 4.62898 4.05095 4.62898 4.86113V6.80557Z" fill="#9CA3AF"/>
</svg>
