<svg width="25" height="28" viewBox="0 0 25 28" fill="none" xmlns="http://www.w3.org/2000/svg">
<path d="M0.343384 19.8333V18.3021C0.343384 17.6053 0.699865 17.0382 1.41283 16.6007C2.12579 16.1632 3.06561 15.9444 4.23227 15.9444C4.44292 15.9444 4.64547 15.9485 4.83991 15.9566C5.03436 15.9647 5.2207 15.985 5.39894 16.0174C5.17209 16.3576 5.00195 16.7141 4.88852 17.0868C4.7751 17.4595 4.71838 17.8484 4.71838 18.2535V19.8333H0.343384ZM6.17672 19.8333V18.2535C6.17672 17.735 6.3185 17.261 6.60206 16.8316C6.88563 16.4022 7.28667 16.0255 7.80519 15.7014C8.32371 15.3773 8.9435 15.1343 9.66456 14.9722C10.3856 14.8102 11.1675 14.7292 12.0101 14.7292C12.8688 14.7292 13.6588 14.8102 14.3798 14.9722C15.1009 15.1343 15.7207 15.3773 16.2392 15.7014C16.7577 16.0255 17.1547 16.4022 17.4302 16.8316C17.7057 17.261 17.8434 17.735 17.8434 18.2535V19.8333H6.17672ZM19.3017 19.8333V18.2535C19.3017 17.8322 19.2491 17.4352 19.1437 17.0625C19.0384 16.6898 18.8804 16.3414 18.6698 16.0174C18.848 15.985 19.0303 15.9647 19.2166 15.9566C19.403 15.9485 19.5934 15.9444 19.7878 15.9444C20.9545 15.9444 21.8943 16.1591 22.6073 16.5885C23.3202 17.0179 23.6767 17.5891 23.6767 18.3021V19.8333H19.3017ZM8.24269 17.8889H15.8017C15.6397 17.5648 15.19 17.2812 14.4528 17.0382C13.7155 16.7951 12.9013 16.6736 12.0101 16.6736C11.1188 16.6736 10.3046 16.7951 9.56734 17.0382C8.83007 17.2812 8.38852 17.5648 8.24269 17.8889ZM4.23227 14.9722C3.69755 14.9722 3.2398 14.7818 2.85901 14.401C2.47822 14.0203 2.28783 13.5625 2.28783 13.0278C2.28783 12.4769 2.47822 12.015 2.85901 11.6424C3.2398 11.2697 3.69755 11.0833 4.23227 11.0833C4.7832 11.0833 5.245 11.2697 5.61769 11.6424C5.99037 12.015 6.17672 12.4769 6.17672 13.0278C6.17672 13.5625 5.99037 14.0203 5.61769 14.401C5.245 14.7818 4.7832 14.9722 4.23227 14.9722ZM19.7878 14.9722C19.2531 14.9722 18.7954 14.7818 18.4146 14.401C18.0338 14.0203 17.8434 13.5625 17.8434 13.0278C17.8434 12.4769 18.0338 12.015 18.4146 11.6424C18.7954 11.2697 19.2531 11.0833 19.7878 11.0833C20.3388 11.0833 20.8006 11.2697 21.1732 11.6424C21.5459 12.015 21.7323 12.4769 21.7323 13.0278C21.7323 13.5625 21.5459 14.0203 21.1732 14.401C20.8006 14.7818 20.3388 14.9722 19.7878 14.9722ZM12.0101 14C11.1999 14 10.5112 13.7164 9.94408 13.1493C9.37695 12.5822 9.09338 11.8935 9.09338 11.0833C9.09338 10.2569 9.37695 9.56423 9.94408 9.00521C10.5112 8.44618 11.1999 8.16667 12.0101 8.16667C12.8364 8.16667 13.5291 8.44618 14.0882 9.00521C14.6472 9.56423 14.9267 10.2569 14.9267 11.0833C14.9267 11.8935 14.6472 12.5822 14.0882 13.1493C13.5291 13.7164 12.8364 14 12.0101 14ZM12.0101 12.0556C12.2855 12.0556 12.5164 11.9624 12.7028 11.776C12.8891 11.5897 12.9823 11.3588 12.9823 11.0833C12.9823 10.8079 12.8891 10.577 12.7028 10.3906C12.5164 10.2043 12.2855 10.1111 12.0101 10.1111C11.7346 10.1111 11.5037 10.2043 11.3173 10.3906C11.131 10.577 11.0378 10.8079 11.0378 11.0833C11.0378 11.3588 11.131 11.5897 11.3173 11.776C11.5037 11.9624 11.7346 12.0556 12.0101 12.0556Z" fill="#333333"/>
</svg>
