<svg width="25" height="28" viewBox="0 0 25 28" fill="none" xmlns="http://www.w3.org/2000/svg">
<path d="M6.03084 18.9583C6.85723 18.3263 7.78084 17.8281 8.80167 17.4635C9.8225 17.0989 10.8919 16.9166 12.01 16.9166C13.1281 16.9166 14.1975 17.0989 15.2183 17.4635C16.2392 17.8281 17.1628 18.3263 17.9892 18.9583C18.5563 18.2939 18.9979 17.5405 19.3138 16.6979C19.6298 15.8553 19.7878 14.956 19.7878 13.9999C19.7878 11.8449 19.0303 10.0098 17.5152 8.49474C16.0002 6.97969 14.1651 6.22217 12.01 6.22217C9.85491 6.22217 8.01984 6.97969 6.50479 8.49474C4.98975 10.0098 4.23223 11.8449 4.23223 13.9999C4.23223 14.956 4.39021 15.8553 4.70618 16.6979C5.02216 17.5405 5.46371 18.2939 6.03084 18.9583ZM12.01 14.9722C11.054 14.9722 10.2479 14.644 9.5916 13.9878C8.93535 13.3315 8.60723 12.5254 8.60723 11.5694C8.60723 10.6134 8.93535 9.80724 9.5916 9.15099C10.2479 8.49474 11.054 8.16661 12.01 8.16661C12.966 8.16661 13.7722 8.49474 14.4284 9.15099C15.0847 9.80724 15.4128 10.6134 15.4128 11.5694C15.4128 12.5254 15.0847 13.3315 14.4284 13.9878C13.7722 14.644 12.966 14.9722 12.01 14.9722ZM12.01 23.7222C10.6651 23.7222 9.40121 23.467 8.21834 22.9565C7.03547 22.4461 6.00653 21.7534 5.13153 20.8784C4.25653 20.0034 3.56382 18.9745 3.05341 17.7916C2.54299 16.6087 2.28778 15.3449 2.28778 13.9999C2.28778 12.655 2.54299 11.3911 3.05341 10.2083C3.56382 9.02541 4.25653 7.99647 5.13153 7.12147C6.00653 6.24647 7.03547 5.55376 8.21834 5.04335C9.40121 4.53293 10.6651 4.27772 12.01 4.27772C13.3549 4.27772 14.6188 4.53293 15.8017 5.04335C16.9845 5.55376 18.0135 6.24647 18.8885 7.12147C19.7635 7.99647 20.4562 9.02541 20.9666 10.2083C21.477 11.3911 21.7322 12.655 21.7322 13.9999C21.7322 15.3449 21.477 16.6087 20.9666 17.7916C20.4562 18.9745 19.7635 20.0034 18.8885 20.8784C18.0135 21.7534 16.9845 22.4461 15.8017 22.9565C14.6188 23.467 13.3549 23.7222 12.01 23.7222ZM12.01 21.7777C12.8688 21.7777 13.679 21.6521 14.4406 21.401C15.2021 21.1498 15.8989 20.7893 16.5308 20.3194C15.8989 19.8495 15.2021 19.489 14.4406 19.2378C13.679 18.9866 12.8688 18.8611 12.01 18.8611C11.1512 18.8611 10.341 18.9866 9.57945 19.2378C8.81787 19.489 8.12111 19.8495 7.48917 20.3194C8.12111 20.7893 8.81787 21.1498 9.57945 21.401C10.341 21.6521 11.1512 21.7777 12.01 21.7777ZM12.01 13.0277C12.4313 13.0277 12.7797 12.89 13.0551 12.6145C13.3306 12.3391 13.4683 11.9907 13.4683 11.5694C13.4683 11.1481 13.3306 10.7997 13.0551 10.5243C12.7797 10.2488 12.4313 10.1111 12.01 10.1111C11.5887 10.1111 11.2403 10.2488 10.9649 10.5243C10.6894 10.7997 10.5517 11.1481 10.5517 11.5694C10.5517 11.9907 10.6894 12.3391 10.9649 12.6145C11.2403 12.89 11.5887 13.0277 12.01 13.0277Z" fill="#333333" fill-opacity="0.7"/>
</svg>
