<svg width="16" height="19" viewBox="0 0 16 19" fill="none" xmlns="http://www.w3.org/2000/svg">
<path d="M7.69237 15.3436C6.83827 15.3545 6.02897 15.2006 5.26446 14.8821C4.49995 14.5637 3.83028 14.1242 3.25543 13.5637C2.68059 13.0032 2.2243 12.3449 1.88658 11.5887C1.54886 10.8325 1.3746 10.0273 1.36379 9.17323C1.35285 8.30872 1.50665 7.49681 1.8252 6.73751C2.14374 5.97821 2.58325 5.31114 3.14373 4.73629C3.70421 4.16145 4.36255 3.70516 5.11876 3.36744C5.87496 3.02972 6.68011 2.85546 7.53421 2.84465C8.39873 2.83371 9.21063 2.98751 9.96993 3.30606C10.7292 3.6246 11.3963 4.06411 11.9711 4.62459C12.546 5.18507 13.0022 5.84081 13.3399 6.5918C13.6776 7.3428 13.8519 8.15056 13.8628 9.01507C13.8736 9.86917 13.7198 10.6785 13.4013 11.443C13.0828 12.2075 12.6433 12.8772 12.0829 13.452C11.5224 14.0269 10.8666 14.4831 10.1156 14.8208C9.36464 15.1584 8.55689 15.3327 7.69237 15.3436ZM7.66074 12.8438C8.70232 12.8307 9.58305 12.4549 10.3029 11.7166C11.0228 10.9782 11.3762 10.0883 11.363 9.0467C11.3498 8.00512 10.9741 7.12439 10.2357 6.4045C9.49738 5.68462 8.60743 5.33127 7.56584 5.34445C6.52426 5.35763 5.64353 5.73339 4.92364 6.47172C4.20376 7.21006 3.85041 8.10001 3.86359 9.1416C3.87677 10.1832 4.25253 11.0639 4.99086 11.7838C5.7292 12.5037 6.61916 12.857 7.66074 12.8438Z" fill="#FF6E0A"/>
</svg>
