<svg width="25" height="28" viewBox="0 0 25 28" fill="none" xmlns="http://www.w3.org/2000/svg">
<path d="M14.9205 22.7405L9.08957 20.6997L4.57062 22.449C4.24668 22.5786 3.94704 22.5421 3.67169 22.3397C3.39634 22.1372 3.25867 21.8659 3.25867 21.5258V7.92032C3.25867 7.70976 3.31941 7.5235 3.44088 7.36153C3.56236 7.19956 3.72838 7.07808 3.93894 6.9971L9.08957 5.24783L14.9205 7.28864L19.4394 5.53937C19.7634 5.4098 20.063 5.44624 20.3384 5.6487C20.6137 5.85116 20.7514 6.12246 20.7514 6.4626V20.068C20.7514 20.2786 20.6906 20.4649 20.5692 20.6268C20.4477 20.7888 20.2817 20.9103 20.0711 20.9913L14.9205 22.7405ZM13.9487 20.3596V8.98932L10.0614 7.62878V18.999L13.9487 20.3596ZM15.8923 20.3596L18.8077 19.3878V7.87173L15.8923 8.98932V20.3596ZM5.2023 20.1166L8.11775 18.999V7.62878L5.2023 8.6006V20.1166Z" fill="#333333" fill-opacity="0.7"/>
</svg>
