<svg width="25" height="24" viewBox="0 0 25 24" fill="none" xmlns="http://www.w3.org/2000/svg">
<path d="M8 17.5L12.5 13.3L17 17.5L18.75 15.8667L14.25 11.6667L18.75 7.46667L17 5.83333L12.5 10.0333L8 5.83333L6.25 7.46667L10.75 11.6667L6.25 15.8667L8 17.5ZM12.5 23.3333C10.7708 23.3333 9.14583 23.0271 7.625 22.4146C6.10417 21.8021 4.78125 20.9708 3.65625 19.9208C2.53125 18.8708 1.64063 17.6361 0.984375 16.2167C0.328125 14.7972 0 13.2806 0 11.6667C0 10.0528 0.328125 8.53611 0.984375 7.11667C1.64063 5.69722 2.53125 4.4625 3.65625 3.4125C4.78125 2.3625 6.10417 1.53125 7.625 0.91875C9.14583 0.30625 10.7708 0 12.5 0C14.2292 0 15.8542 0.30625 17.375 0.91875C18.8958 1.53125 20.2188 2.3625 21.3438 3.4125C22.4688 4.4625 23.3594 5.69722 24.0156 7.11667C24.6719 8.53611 25 10.0528 25 11.6667C25 13.2806 24.6719 14.7972 24.0156 16.2167C23.3594 17.6361 22.4688 18.8708 21.3438 19.9208C20.2188 20.9708 18.8958 21.8021 17.375 22.4146C15.8542 23.0271 14.2292 23.3333 12.5 23.3333ZM12.5 21C15.2917 21 17.6563 20.0958 19.5938 18.2875C21.5313 16.4792 22.5 14.2722 22.5 11.6667C22.5 9.06111 21.5313 6.85417 19.5938 5.04583C17.6563 3.2375 15.2917 2.33333 12.5 2.33333C9.70833 2.33333 7.34375 3.2375 5.40625 5.04583C3.46875 6.85417 2.5 9.06111 2.5 11.6667C2.5 14.2722 3.46875 16.4792 5.40625 18.2875C7.34375 20.0958 9.70833 21 12.5 21Z" fill="white"/>
</svg>
